<?xml version="1.0" encoding="UTF-8" standalone="no"?>
<!DOCTYPE svg PUBLIC "-//W3C//DTD SVG 1.1//EN" "http://www.w3.org/Graphics/SVG/1.1/DTD/svg11.dtd">
<svg width="100%" height="100%" viewBox="0 0 696 240" version="1.1" xmlns="http://www.w3.org/2000/svg" xmlns:xlink="http://www.w3.org/1999/xlink" xml:space="preserve" xmlns:serif="http://www.serif.com/" style="fill-rule:evenodd;clip-rule:evenodd;stroke-linejoin:round;stroke-miterlimit:2;">
    <g transform="matrix(1,0,0,1,-173,-1424)">
        <g id="logo-color" transform="matrix(0.947015,0,0,1.00079,-46.5734,1.89333)">
            <rect x="231.919" y="1421.14" width="733.885" height="239.118" style="fill:none;"/>
            <g transform="matrix(1.05595,0,0,0.998599,152.953,1351.72)">
                <g transform="matrix(288,0,0,288,64.1818,272.407)">
                    <path d="M0.549,-0.01C0.531,-0.002 0.51,0.004 0.485,0.009C0.46,0.013 0.436,0.015 0.411,0.015C0.359,0.015 0.31,0.006 0.265,-0.013C0.22,-0.031 0.18,-0.056 0.147,-0.088C0.114,-0.12 0.088,-0.158 0.069,-0.202C0.05,-0.245 0.04,-0.292 0.04,-0.343C0.04,-0.394 0.05,-0.441 0.069,-0.485C0.088,-0.529 0.114,-0.567 0.147,-0.6C0.18,-0.632 0.22,-0.657 0.265,-0.676C0.31,-0.695 0.359,-0.704 0.411,-0.704C0.463,-0.704 0.512,-0.695 0.557,-0.676C0.602,-0.657 0.642,-0.632 0.675,-0.6C0.708,-0.567 0.735,-0.529 0.754,-0.485C0.773,-0.441 0.782,-0.394 0.782,-0.343C0.782,-0.293 0.773,-0.246 0.754,-0.203C0.735,-0.16 0.709,-0.123 0.677,-0.093L0.764,0.014L0.64,0.109L0.549,-0.01ZM0.426,-0.167C0.417,-0.179 0.408,-0.191 0.4,-0.204C0.391,-0.217 0.387,-0.229 0.387,-0.24C0.387,-0.256 0.391,-0.269 0.399,-0.28C0.407,-0.29 0.417,-0.298 0.429,-0.304C0.44,-0.31 0.453,-0.314 0.466,-0.317C0.479,-0.319 0.491,-0.32 0.501,-0.32L0.575,-0.222C0.584,-0.234 0.591,-0.251 0.598,-0.273C0.604,-0.294 0.607,-0.318 0.607,-0.343C0.607,-0.372 0.602,-0.4 0.593,-0.425C0.583,-0.45 0.569,-0.471 0.552,-0.49C0.535,-0.508 0.514,-0.522 0.49,-0.533C0.466,-0.543 0.44,-0.548 0.411,-0.548C0.382,-0.548 0.356,-0.543 0.332,-0.533C0.308,-0.522 0.287,-0.508 0.27,-0.49C0.253,-0.471 0.239,-0.45 0.23,-0.425C0.22,-0.4 0.215,-0.372 0.215,-0.343C0.215,-0.314 0.22,-0.286 0.23,-0.262C0.239,-0.237 0.253,-0.215 0.27,-0.196C0.287,-0.177 0.308,-0.163 0.332,-0.152C0.356,-0.141 0.382,-0.136 0.411,-0.136L0.43,-0.136C0.437,-0.136 0.444,-0.137 0.449,-0.138L0.426,-0.167Z" style="fill:rgb(0,123,255);fill-rule:nonzero;"/>
                </g>
                <g transform="matrix(288,0,0,288,293.718,272.407)">
                    <path d="M0.206,-0.188C0.207,-0.18 0.211,-0.172 0.217,-0.165C0.222,-0.157 0.23,-0.15 0.241,-0.143C0.251,-0.136 0.264,-0.131 0.28,-0.127C0.296,-0.123 0.315,-0.121 0.338,-0.121C0.355,-0.121 0.372,-0.123 0.387,-0.126C0.402,-0.129 0.416,-0.132 0.427,-0.135C0.438,-0.138 0.448,-0.142 0.455,-0.145C0.462,-0.148 0.467,-0.151 0.468,-0.152L0.524,-0.04C0.519,-0.037 0.51,-0.032 0.498,-0.026C0.485,-0.02 0.47,-0.014 0.451,-0.008C0.432,-0.002 0.411,0.003 0.386,0.008C0.361,0.012 0.333,0.014 0.303,0.014C0.266,0.014 0.231,0.008 0.198,-0.004C0.165,-0.016 0.137,-0.034 0.113,-0.057C0.088,-0.08 0.069,-0.108 0.055,-0.141C0.041,-0.174 0.034,-0.212 0.034,-0.255C0.034,-0.295 0.041,-0.332 0.055,-0.365C0.069,-0.398 0.088,-0.427 0.113,-0.45C0.138,-0.473 0.167,-0.492 0.2,-0.505C0.233,-0.518 0.269,-0.524 0.308,-0.524C0.344,-0.524 0.376,-0.519 0.405,-0.51C0.434,-0.5 0.458,-0.487 0.478,-0.47C0.497,-0.453 0.512,-0.434 0.523,-0.413C0.533,-0.392 0.538,-0.37 0.538,-0.347C0.538,-0.322 0.534,-0.3 0.525,-0.281C0.516,-0.261 0.501,-0.244 0.479,-0.231C0.456,-0.217 0.426,-0.206 0.388,-0.199C0.349,-0.192 0.3,-0.188 0.241,-0.188L0.206,-0.188ZM0.198,-0.292C0.243,-0.292 0.277,-0.294 0.302,-0.297C0.327,-0.3 0.345,-0.305 0.357,-0.31C0.369,-0.315 0.376,-0.321 0.379,-0.328C0.382,-0.335 0.383,-0.341 0.383,-0.348C0.383,-0.362 0.377,-0.374 0.364,-0.385C0.351,-0.395 0.332,-0.4 0.307,-0.4C0.289,-0.4 0.273,-0.397 0.26,-0.391C0.247,-0.384 0.236,-0.376 0.227,-0.366C0.218,-0.356 0.211,-0.345 0.206,-0.332C0.201,-0.319 0.199,-0.305 0.198,-0.292Z" style="fill:rgb(0,123,255);fill-rule:nonzero;"/>
                </g>
                <g transform="matrix(288,0,0,288,448.086,272.407)">
                    <path d="M0.082,-0.156C0.087,-0.152 0.096,-0.147 0.109,-0.142C0.121,-0.136 0.135,-0.131 0.153,-0.126C0.169,-0.121 0.189,-0.116 0.211,-0.113C0.232,-0.109 0.255,-0.107 0.279,-0.107C0.306,-0.107 0.327,-0.11 0.341,-0.115C0.355,-0.119 0.362,-0.128 0.362,-0.141C0.362,-0.154 0.356,-0.164 0.345,-0.169C0.333,-0.173 0.315,-0.178 0.29,-0.181L0.238,-0.187C0.212,-0.19 0.187,-0.195 0.163,-0.202C0.139,-0.208 0.118,-0.217 0.1,-0.23C0.081,-0.242 0.067,-0.258 0.056,-0.277C0.045,-0.296 0.04,-0.321 0.04,-0.35C0.04,-0.375 0.045,-0.397 0.054,-0.419C0.063,-0.44 0.077,-0.458 0.096,-0.474C0.115,-0.489 0.14,-0.502 0.17,-0.511C0.2,-0.52 0.236,-0.524 0.277,-0.524C0.319,-0.524 0.355,-0.521 0.386,-0.516C0.416,-0.511 0.442,-0.502 0.464,-0.491C0.477,-0.484 0.487,-0.476 0.495,-0.467C0.502,-0.457 0.506,-0.445 0.506,-0.431C0.506,-0.42 0.504,-0.411 0.5,-0.403C0.495,-0.394 0.49,-0.387 0.485,-0.381C0.479,-0.375 0.474,-0.37 0.469,-0.367C0.464,-0.364 0.46,-0.362 0.459,-0.361C0.457,-0.363 0.452,-0.367 0.443,-0.372C0.434,-0.377 0.422,-0.383 0.407,-0.388C0.392,-0.393 0.374,-0.397 0.353,-0.401C0.331,-0.405 0.308,-0.407 0.281,-0.407C0.251,-0.407 0.23,-0.404 0.219,-0.397C0.207,-0.39 0.201,-0.38 0.201,-0.369C0.201,-0.358 0.206,-0.35 0.217,-0.345C0.228,-0.34 0.244,-0.336 0.265,-0.333L0.356,-0.32C0.379,-0.317 0.401,-0.312 0.422,-0.306C0.443,-0.299 0.461,-0.29 0.478,-0.278C0.494,-0.266 0.507,-0.251 0.517,-0.232C0.526,-0.213 0.531,-0.191 0.531,-0.164C0.531,-0.108 0.51,-0.064 0.467,-0.033C0.424,-0.002 0.365,0.014 0.29,0.014C0.251,0.014 0.216,0.011 0.186,0.006C0.155,0.001 0.129,-0.006 0.107,-0.013C0.085,-0.02 0.067,-0.027 0.054,-0.035C0.04,-0.042 0.03,-0.048 0.025,-0.052L0.082,-0.156Z" style="fill:rgb(0,123,255);fill-rule:nonzero;"/>
                </g>
                <g transform="matrix(288,0,0,288,597.558,272.407)">
                    <path d="M0.216,-0.238C0.216,-0.169 0.247,-0.134 0.31,-0.134C0.373,-0.134 0.404,-0.169 0.404,-0.238L0.404,-0.439C0.404,-0.465 0.412,-0.483 0.427,-0.494C0.442,-0.505 0.463,-0.51 0.488,-0.51C0.506,-0.51 0.522,-0.508 0.537,-0.504C0.552,-0.499 0.561,-0.496 0.565,-0.495L0.565,-0.208C0.565,-0.171 0.559,-0.138 0.546,-0.111C0.533,-0.083 0.515,-0.06 0.492,-0.042C0.469,-0.023 0.442,-0.009 0.411,-0C0.38,0.009 0.346,0.014 0.31,0.014C0.274,0.014 0.24,0.009 0.209,-0C0.178,-0.009 0.151,-0.023 0.128,-0.042C0.105,-0.06 0.088,-0.083 0.075,-0.111C0.062,-0.138 0.055,-0.171 0.055,-0.208L0.055,-0.439C0.055,-0.465 0.063,-0.483 0.078,-0.494C0.093,-0.505 0.114,-0.51 0.139,-0.51C0.157,-0.51 0.173,-0.508 0.188,-0.504C0.203,-0.499 0.212,-0.496 0.216,-0.495L0.216,-0.238Z" style="fill:rgb(0,123,255);fill-rule:nonzero;"/>
                </g>
            </g>
        </g>
    </g>
</svg>
