<?xml version="1.0" encoding="UTF-8" standalone="no"?>
<!DOCTYPE svg PUBLIC "-//W3C//DTD SVG 1.1//EN" "http://www.w3.org/Graphics/SVG/1.1/DTD/svg11.dtd">
<svg width="100%" height="100%" viewBox="0 0 775 849" version="1.1" xmlns="http://www.w3.org/2000/svg" xmlns:xlink="http://www.w3.org/1999/xlink" xml:space="preserve" xmlns:serif="http://www.serif.com/" style="fill-rule:evenodd;clip-rule:evenodd;stroke-linejoin:round;stroke-miterlimit:2;">
    <g transform="matrix(1,0,0,1,-483,-1968)">
        <g id="q-logo-white" transform="matrix(1,0,0,1,-0.373743,-0.490155)">
            <rect x="483.374" y="1968.49" width="774.062" height="848.13" style="fill:none;"/>
            <clipPath id="_clip1">
                <rect x="483.374" y="1968.49" width="774.062" height="848.13"/>
            </clipPath>
            <g clip-path="url(#_clip1)">
                <g transform="matrix(1043.21,0,0,1043.21,442.019,2703.4)">
                    <path d="M0.549,-0.01C0.531,-0.002 0.51,0.004 0.485,0.009C0.46,0.013 0.436,0.015 0.411,0.015C0.359,0.015 0.31,0.006 0.265,-0.013C0.22,-0.031 0.18,-0.056 0.147,-0.088C0.114,-0.12 0.088,-0.158 0.069,-0.202C0.05,-0.245 0.04,-0.292 0.04,-0.343C0.04,-0.394 0.05,-0.441 0.069,-0.485C0.088,-0.529 0.114,-0.567 0.147,-0.6C0.18,-0.632 0.22,-0.657 0.265,-0.676C0.31,-0.695 0.359,-0.704 0.411,-0.704C0.463,-0.704 0.512,-0.695 0.557,-0.676C0.602,-0.657 0.642,-0.632 0.675,-0.6C0.708,-0.567 0.735,-0.529 0.754,-0.485C0.773,-0.441 0.782,-0.394 0.782,-0.343C0.782,-0.293 0.773,-0.246 0.754,-0.203C0.735,-0.16 0.709,-0.123 0.677,-0.093L0.764,0.014L0.64,0.109L0.549,-0.01ZM0.426,-0.167C0.417,-0.179 0.408,-0.191 0.4,-0.204C0.391,-0.217 0.387,-0.229 0.387,-0.24C0.387,-0.256 0.391,-0.269 0.399,-0.28C0.407,-0.29 0.417,-0.298 0.429,-0.304C0.44,-0.31 0.453,-0.314 0.466,-0.317C0.479,-0.319 0.491,-0.32 0.501,-0.32L0.575,-0.222C0.584,-0.234 0.591,-0.251 0.598,-0.273C0.604,-0.294 0.607,-0.318 0.607,-0.343C0.607,-0.372 0.602,-0.4 0.593,-0.425C0.583,-0.45 0.569,-0.471 0.552,-0.49C0.535,-0.508 0.514,-0.522 0.49,-0.533C0.466,-0.543 0.44,-0.548 0.411,-0.548C0.382,-0.548 0.356,-0.543 0.332,-0.533C0.308,-0.522 0.287,-0.508 0.27,-0.49C0.253,-0.471 0.239,-0.45 0.23,-0.425C0.22,-0.4 0.215,-0.372 0.215,-0.343C0.215,-0.314 0.22,-0.286 0.23,-0.262C0.239,-0.237 0.253,-0.215 0.27,-0.196C0.287,-0.177 0.308,-0.163 0.332,-0.152C0.356,-0.141 0.382,-0.136 0.411,-0.136L0.43,-0.136C0.437,-0.136 0.444,-0.137 0.449,-0.138L0.426,-0.167Z" style="fill:white;fill-rule:nonzero;"/>
                </g>
            </g>
        </g>
    </g>
</svg>
